{
  "accessors": [
    {
      "bufferView": 1,
      "componentType": 5126,
      "count": 988,
      "max": [
        4.420199871063232,
        14.222029685974121,
        3.002120018005371
      ],
      "min": [
        -89.49574279785156,
        -14.222020149230957,
        -48.5788688659668
      ],
      "type": "VEC3"
    },
    {
      "bufferView": 1,
      "byteOffset": 11856,
      "componentType": 5126,
      "count": 988,
      "max": [
        1.0,
        1.0,
        1.0
      ],
      "min": [
        -1.0,
        -1.0,
        -1.0
      ],
      "type": "VEC3"
    },
    {
      "bufferView": 0,
      "componentType": 5125,
      "count": 1680,
      "type": "SCALAR"
    },
    {
      "bufferView": 1,
      "byteOffset": 23712,
      "componentType": 5126,
      "count": 327,
      "max": [
        -49.04899597167969,
        4.609739780426025,
        -18.55862808227539
      ],
      "min": [
        -54.652740478515625,
        -4.688769817352295,
        -27.979698181152344
      ],
      "type": "VEC3"
    },
    {
      "bufferView": 1,
      "byteOffset": 27636,
      "componentType": 5126,
      "count": 327,
      "max": [
        1.0000051259994507,
        0.9944087862968445,
        0.9563655257225037
      ],
      "min": [
        -0.0349300280213356,
        -0.9944087862968445,
        -0.954426109790802
      ],
      "type": "VEC3"
    },
    {
      "bufferView": 0,
      "byteOffset": 6720,
      "componentType": 5125,
      "count": 468,
      "type": "SCALAR"
    },
    {
      "bufferView": 1,
      "byteOffset": 31560,
      "componentType": 5126,
      "count": 93,
      "max": [
        -59.747989654541016,
        2.824810028076172,
        -19.650623321533203
      ],
      "min": [
        -61.72587585449219,
        -2.9038500785827637,
        -27.60930633544922
      ],
      "type": "VEC3"
    },
    {
      "bufferView": 1,
      "byteOffset": 32676,
      "componentType": 5126,
      "count": 93,
      "max": [
        0.0968005359172821,
        1.0,
        0.9562671780586243
      ],
      "min": [
        -1.0000051259994507,
        -1.0,
        -0.9562671780586243
      ],
      "type": "VEC3"
    },
    {
      "bufferView": 0,
      "byteOffset": 8592,
      "componentType": 5125,
      "count": 144,
      "type": "SCALAR"
    },
    {
      "bufferView": 1,
      "byteOffset": 33792,
      "componentType": 5126,
      "count": 603,
      "max": [
        -52.952545166015625,
        4.7846198081970215,
        -18.451627731323242
      ],
      "min": [
        -61.751625061035156,
        -4.863659858703613,
        -28.80474281311035
      ],
      "type": "VEC3"
    },
    {
      "bufferView": 1,
      "byteOffset": 41028,
      "componentType": 5126,
      "count": 603,
      "max": [
        1.0000051259994507,
        1.0,
        0.9562671780586243
      ],
      "min": [
        -1.0000051259994507,
        -1.0,
        -0.9562671780586243
      ],
      "type": "VEC3"
    },
    {
      "bufferView": 0,
      "byteOffset": 9168,
      "componentType": 5125,
      "count": 972,
      "type": "SCALAR"
    },
    {
      "bufferView": 1,
      "byteOffset": 48264,
      "componentType": 5126,
      "count": 613,
      "max": [
        -13.053569793701172,
        5.3885498046875,
        5.093719959259033
      ],
      "min": [
        -104.22096252441406,
        -19.084880828857422,
        -19.16663932800293
      ],
      "type": "VEC3"
    },
    {
      "bufferView": 1,
      "byteOffset": 55620,
      "componentType": 5126,
      "count": 613,
      "max": [
        1.0,
        1.0,
        1.0
      ],
      "min": [
        -1.0,
        -1.0,
        -1.0
      ],
      "type": "VEC3"
    },
    {
      "bufferView": 0,
      "byteOffset": 13056,
      "componentType": 5125,
      "count": 798,
      "type": "SCALAR"
    },
    {
      "bufferView": 1,
      "byteOffset": 62976,
      "componentType": 5126,
      "count": 2828,
      "max": [
        4.4722700119018555,
        10.557109832763672,
        3.436310052871704
      ],
      "min": [
        -200.40771484375,
        -10.557089805603027,
        -71.56001281738281
      ],
      "type": "VEC3"
    },
    {
      "bufferView": 1,
      "byteOffset": 96912,
      "componentType": 5126,
      "count": 2828,
      "max": [
        1.0,
        1.0,
        1.0
      ],
      "min": [
        -1.0,
        -1.0,
        -1.0
      ],
      "type": "VEC3"
    },
    {
      "bufferView": 0,
      "byteOffset": 16248,
      "componentType": 5125,
      "count": 6498,
      "type": "SCALAR"
    },
    {
      "bufferView": 1,
      "byteOffset": 130848,
      "componentType": 5126,
      "count": 1607,
      "max": [
        2.4694299697875977,
        11.070679664611816,
        0.8076099753379822
      ],
      "min": [
        -110.27424621582031,
        -11.070679664611816,
        -89.98332977294922
      ],
      "type": "VEC3"
    },
    {
      "bufferView": 1,
      "byteOffset": 150132,
      "componentType": 5126,
      "count": 1607,
      "max": [
        1.0,
        1.0,
        1.0
      ],
      "min": [
        -1.0,
        -1.0,
        -1.0
      ],
      "type": "VEC3"
    },
    {
      "bufferView": 0,
      "byteOffset": 42240,
      "componentType": 5125,
      "count": 3054,
      "type": "SCALAR"
    },
    {
      "bufferView": 1,
      "byteOffset": 169416,
      "componentType": 5126,
      "count": 1235,
      "max": [
        4.551939964294434,
        10.572030067443848,
        7.219130039215088
      ],
      "min": [
        -201.37765502929688,
        -18.89565086364746,
        -28.93198013305664
      ],
      "type": "VEC3"
    },
    {
      "bufferView": 1,
      "byteOffset": 184236,
      "componentType": 5126,
      "count": 1235,
      "max": [
        1.0,
        1.0,
        1.0
      ],
      "min": [
        -1.0,
        -1.0,
        -1.0
      ],
      "type": "VEC3"
    },
    {
      "bufferView": 0,
      "byteOffset": 54456,
      "componentType": 5125,
      "count": 2664,
      "type": "SCALAR"
    },
    {
      "bufferView": 1,
      "byteOffset": 199056,
      "componentType": 5126,
      "count": 732,
      "max": [
        4.293000221252441,
        14.261260032653809,
        -2.208620071411133
      ],
      "min": [
        -119.63359832763672,
        -14.261249542236328,
        -27.27705955505371
      ],
      "type": "VEC3"
    },
    {
      "bufferView": 1,
      "byteOffset": 207840,
      "componentType": 5126,
      "count": 732,
      "max": [
        1.0,
        1.0,
        1.0
      ],
      "min": [
        -1.0,
        -1.0,
        -1.0
      ],
      "type": "VEC3"
    },
    {
      "bufferView": 0,
      "byteOffset": 65112,
      "componentType": 5125,
      "count": 1152,
      "type": "SCALAR"
    },
    {
      "bufferView": 1,
      "byteOffset": 216624,
      "componentType": 5126,
      "count": 36,
      "max": [
        -51.991111755371094,
        -4.0001301765441895,
        -15.296146392822266
      ],
      "min": [
        -53.32368087768555,
        -7.849569797515869,
        -16.83486557006836
      ],
      "type": "VEC3"
    },
    {
      "bufferView": 1,
      "byteOffset": 217056,
      "componentType": 5126,
      "count": 36,
      "max": [
        1.0,
        1.0,
        0.8660265803337097
      ],
      "min": [
        -1.0,
        -1.0,
        -0.8660265803337097
      ],
      "type": "VEC3"
    },
    {
      "bufferView": 0,
      "byteOffset": 69720,
      "componentType": 5125,
      "count": 60,
      "type": "SCALAR"
    },
    {
      "bufferView": 2,
      "componentType": 5126,
      "count": 1,
      "max": [
        1.0,
        0.0,
        0.0,
        0.0,
        0.0,
        1.0,
        0.0,
        0.0,
        0.0,
        0.0,
        1.0,
        0.0,
        0.0,
        0.0,
        0.0,
        1.0
      ],
      "min": [
        1.0,
        0.0,
        0.0,
        0.0,
        0.0,
        1.0,
        0.0,
        0.0,
        0.0,
        0.0,
        1.0,
        0.0,
        0.0,
        0.0,
        0.0,
        1.0
      ],
      "type": "MAT4"
    }
  ],
  "asset": {
    "extras": {
      "author": "TastyTony (https://sketchfab.com/TastyTony)",
      "license": "CC-BY-4.0 (http://creativecommons.org/licenses/by/4.0/)",
      "source": "https://sketchfab.com/3d-models/low-poly-hk-smg-ii-1ae4b8365c0047cf9a4ff8e2610768ce",
      "title": "Low-Poly HK SMG II"
    },
    "generator": "Sketchfab-15.10.0",
    "version": "2.0"
  },
  "bufferViews": [
    {
      "buffer": 0,
      "byteLength": 69960,
      "name": "floatBufferViews",
      "target": 34963
    },
    {
      "buffer": 0,
      "byteLength": 217488,
      "byteOffset": 69960,
      "byteStride": 12,
      "name": "floatBufferViews",
      "target": 34962
    },
    {
      "buffer": 0,
      "byteLength": 64,
      "byteOffset": 287448,
      "name": "floatBufferViews"
    }
  ],
  "buffers": [
    {
      "byteLength": 287512,
      "uri": "scene.bin"
    }
  ],
  "extensionsRequired": [
    "KHR_materials_pbrSpecularGlossiness"
  ],
  "extensionsUsed": [
    "KHR_materials_pbrSpecularGlossiness"
  ],
  "materials": [
    {
      "doubleSided": true,
      "extensions": {
        "KHR_materials_pbrSpecularGlossiness": {
          "diffuseFactor": [
            0.02209655917924395,
            0.02209655917924395,
            0.02209655917924395,
            1.0
          ],
          "glossinessFactor": 0.0,
          "specularFactor": [
            0.0,
            0.0,
            0.0
          ]
        }
      },
      "name": "Material.006"
    },
    {
      "doubleSided": true,
      "extensions": {
        "KHR_materials_pbrSpecularGlossiness": {
          "diffuseFactor": [
            1.0,
            1.0,
            1.0,
            1.0
          ],
          "glossinessFactor": 1.0,
          "specularFactor": [
            1.0,
            1.0,
            1.0
          ]
        }
      },
      "name": "Material.013"
    },
    {
      "doubleSided": true,
      "extensions": {
        "KHR_materials_pbrSpecularGlossiness": {
          "diffuseFactor": [
            1.0,
            1.0,
            1.0,
            1.0
          ],
          "glossinessFactor": 1.0,
          "specularFactor": [
            1.0,
            1.0,
            1.0
          ]
        }
      },
      "name": "Material.012"
    },
    {
      "doubleSided": true,
      "extensions": {
        "KHR_materials_pbrSpecularGlossiness": {
          "diffuseFactor": [
            1.0,
            1.0,
            1.0,
            1.0
          ],
          "glossinessFactor": 1.0,
          "specularFactor": [
            1.0,
            1.0,
            1.0
          ]
        }
      },
      "name": "Material.011"
    },
    {
      "doubleSided": true,
      "extensions": {
        "KHR_materials_pbrSpecularGlossiness": {
          "diffuseFactor": [
            0.03282970664197667,
            0.03282970664197667,
            0.03282970664197667,
            1.0
          ],
          "glossinessFactor": 0.0,
          "specularFactor": [
            0.0,
            0.0,
            0.0
          ]
        }
      },
      "name": "Material.009"
    },
    {
      "doubleSided": true,
      "extensions": {
        "KHR_materials_pbrSpecularGlossiness": {
          "diffuseFactor": [
            0.021807634948988765,
            0.021807634948988765,
            0.021807634948988765,
            1.0
          ],
          "glossinessFactor": 0.0,
          "specularFactor": [
            0.0,
            0.0,
            0.0
          ]
        }
      },
      "name": "Material.007"
    },
    {
      "doubleSided": true,
      "extensions": {
        "KHR_materials_pbrSpecularGlossiness": {
          "diffuseFactor": [
            0.03643699750558049,
            0.03643699750558049,
            0.03643699750558049,
            1.0
          ],
          "glossinessFactor": 0.0,
          "specularFactor": [
            0.0,
            0.0,
            0.0
          ]
        }
      },
      "name": "Material.008"
    },
    {
      "doubleSided": true,
      "extensions": {
        "KHR_materials_pbrSpecularGlossiness": {
          "diffuseFactor": [
            0.027849724533595455,
            0.027849724533595455,
            0.027849724533595455,
            1.0
          ],
          "glossinessFactor": 0.0,
          "specularFactor": [
            0.0,
            0.0,
            0.0
          ]
        }
      },
      "name": "Material.001"
    },
    {
      "doubleSided": true,
      "extensions": {
        "KHR_materials_pbrSpecularGlossiness": {
          "diffuseFactor": [
            0.03727829854512993,
            0.03727829854512993,
            0.03727829854512993,
            1.0
          ],
          "glossinessFactor": 0.0,
          "specularFactor": [
            0.0,
            0.0,
            0.0
          ]
        }
      },
      "name": "Material"
    },
    {
      "doubleSided": true,
      "extensions": {
        "KHR_materials_pbrSpecularGlossiness": {
          "diffuseFactor": [
            0.04487111542964102,
            0.04487111542964102,
            0.04487111542964102,
            1.0
          ],
          "glossinessFactor": 0.0,
          "specularFactor": [
            0.0,
            0.0,
            0.0
          ]
        }
      },
      "name": "Material.010"
    }
  ],
  "meshes": [
    {
      "name": "Cube.008_0",
      "primitives": [
        {
          "attributes": {
            "NORMAL": 1,
            "POSITION": 0
          },
          "indices": 2,
          "material": 0,
          "mode": 4
        }
      ]
    },
    {
      "name": "Cube.008_1",
      "primitives": [
        {
          "attributes": {
            "NORMAL": 4,
            "POSITION": 3
          },
          "indices": 5,
          "material": 1,
          "mode": 4
        }
      ]
    },
    {
      "name": "Cube.008_2",
      "primitives": [
        {
          "attributes": {
            "NORMAL": 7,
            "POSITION": 6
          },
          "indices": 8,
          "material": 2,
          "mode": 4
        }
      ]
    },
    {
      "name": "Cube.008_3",
      "primitives": [
        {
          "attributes": {
            "NORMAL": 10,
            "POSITION": 9
          },
          "indices": 11,
          "material": 3,
          "mode": 4
        }
      ]
    },
    {
      "name": "Cube.008_4",
      "primitives": [
        {
          "attributes": {
            "NORMAL": 13,
            "POSITION": 12
          },
          "indices": 14,
          "material": 4,
          "mode": 4
        }
      ]
    },
    {
      "name": "Cube.008_5",
      "primitives": [
        {
          "attributes": {
            "NORMAL": 16,
            "POSITION": 15
          },
          "indices": 17,
          "material": 5,
          "mode": 4
        }
      ]
    },
    {
      "name": "Cube.008_6",
      "primitives": [
        {
          "attributes": {
            "NORMAL": 19,
            "POSITION": 18
          },
          "indices": 20,
          "material": 6,
          "mode": 4
        }
      ]
    },
    {
      "name": "Cube.008_7",
      "primitives": [
        {
          "attributes": {
            "NORMAL": 22,
            "POSITION": 21
          },
          "indices": 23,
          "material": 7,
          "mode": 4
        }
      ]
    },
    {
      "name": "Cube.008_8",
      "primitives": [
        {
          "attributes": {
            "NORMAL": 25,
            "POSITION": 24
          },
          "indices": 26,
          "material": 8,
          "mode": 4
        }
      ]
    },
    {
      "name": "Cube.008_9",
      "primitives": [
        {
          "attributes": {
            "NORMAL": 28,
            "POSITION": 27
          },
          "indices": 29,
          "material": 9,
          "mode": 4
        }
      ]
    }
  ],
  "nodes": [
    {
      "children": [
        1
      ],
      "matrix": [
        1.0,
        0.0,
        0.0,
        0.0,
        0.0,
        2.220446049250313e-16,
        -1.0,
        0.0,
        0.0,
        1.0,
        2.220446049250313e-16,
        0.0,
        0.0,
        0.0,
        0.0,
        1.0
      ],
      "name": "Sketchfab_model"
    },
    {
      "children": [
        2,
        4
      ],
      "name": "Root"
    },
    {
      "children": [
        3
      ],
      "matrix": [
        0.87848,
        -0.043310000000000015,
        -0.4758200000000001,
        0.0,
        0.47156000000000003,
        0.23882,
        0.8488800000000001,
        0.0,
        0.07688,
        -0.9701,
        0.23022,
        0.0,
        2.01734,
        -25.463299999999997,
        4.423660000000001,
        1.0
      ],
      "name": "Lamp"
    },
    {
      "name": "Lamp"
    },
    {
      "children": [
        5,
        6
      ],
      "matrix": [
        0.0,
        0.0,
        -1.0,
        0.0,
        -0.0,
        1.0,
        -0.0,
        0.0,
        1.0,
        0.0,
        0.0,
        0.0,
        1.8809,
        0.0,
        -1.893,
        1.0
      ],
      "name": "Armature"
    },
    {
      "name": "Armature_rootJoint"
    },
    {
      "children": [
        7,
        8,
        9,
        10,
        11,
        12,
        13,
        14,
        15,
        16
      ],
      "matrix": [
        0.0,
        -0.0,
        0.04224000000000001,
        0.0,
        0.0,
        0.022380000000000008,
        0.0,
        0.0,
        -0.04224000000000001,
        -0.0,
        0.0,
        0.0,
        -1.6218199999999998,
        -0.0,
        1.99841,
        1.0
      ],
      "name": "Cube.008"
    },
    {
      "mesh": 0,
      "name": "Cube.008_0"
    },
    {
      "mesh": 1,
      "name": "Cube.008_1"
    },
    {
      "mesh": 2,
      "name": "Cube.008_2"
    },
    {
      "mesh": 3,
      "name": "Cube.008_3"
    },
    {
      "mesh": 4,
      "name": "Cube.008_4"
    },
    {
      "mesh": 5,
      "name": "Cube.008_5"
    },
    {
      "mesh": 6,
      "name": "Cube.008_6"
    },
    {
      "mesh": 7,
      "name": "Cube.008_7"
    },
    {
      "mesh": 8,
      "name": "Cube.008_8"
    },
    {
      "mesh": 9,
      "name": "Cube.008_9"
    }
  ],
  "scene": 0,
  "scenes": [
    {
      "name": "Sketchfab_Scene",
      "nodes": [
        0
      ]
    }
  ],
  "skins": [
    {
      "inverseBindMatrices": 30,
      "joints": [
        5
      ],
      "skeleton": 5
    }
  ]
}
